<svg width="29" height="25" fill="none" xmlns="http://www.w3.org/2000/svg"><path fill-rule="evenodd" clip-rule="evenodd" d="M.743 12.015l6.434 2.334 2.49 7.783c.159.498.786.683 1.203.352l3.586-2.841a1.093 1.093 0 011.304-.035l6.468 4.563c.445.315 1.076.078 1.188-.446l4.738-22.15c.122-.57-.456-1.047-1.015-.837L.736 10.637a.73.73 0 00.007 1.378zm8.522 1.091L21.84 5.581c.226-.135.458.162.264.337l-10.376 9.374c-.366.33-.6.772-.667 1.25l-.354 2.546c-.046.34-.538.374-.634.045l-1.36-4.642a1.216 1.216 0 01.553-1.385z" fill="#27A5F2"/></svg>