<svg width="31" height="24" fill="none" xmlns="http://www.w3.org/2000/svg"><path d="M30.803 2.935a.683.683 0 00-.79-.133 5.815 5.815 0 01-.84.29 5.53 5.53 0 001-1.83c.093-.333-.116-.675-.467-.764a.686.686 0 00-.546.092c-1 .514-2.063.91-3.165 1.176C23.726-.268 20.27-.52 17.7 1.158c-1.98 1.272-3.07 3.47-2.842 5.73C10.566 6.541 6.617 4.52 3.95 1.306a.696.696 0 00-.559-.233.663.663 0 00-.526.305 5.79 5.79 0 00-.726 4.695 6.53 6.53 0 001.143 2.271 3.522 3.522 0 01-.668-.406.682.682 0 00-.926.092.606.606 0 00-.147.393c.04 2.312 1.376 4.428 3.505 5.55a5.117 5.117 0 01-.847-.173c-.348-.1-.715.088-.82.418a.597.597 0 00.03.437c.925 1.966 2.772 3.402 4.984 3.874a12.102 12.102 0 01-6.94 1.357.65.65 0 00-.701.428.612.612 0 00.303.737 20.497 20.497 0 009.722 2.625 17.326 17.326 0 009.227-2.681c5.214-3.287 8.464-9.189 8.011-14.47a11.962 11.962 0 002.86-2.831.601.601 0 00-.07-.76z" fill="#27A5F2"/></svg>