<svg width="16" height="13" fill="none" xmlns="http://www.w3.org/2000/svg"><path d="M15.281 2.157a.347.347 0 00-.4-.067c-.139.06-.282.109-.428.147.228-.278.4-.592.508-.93a.316.316 0 00-.237-.387.349.349 0 00-.278.046 7.246 7.246 0 01-1.607.598C11.686.53 9.93.402 8.625 1.254c-1.005.647-1.56 1.763-1.443 2.911C5.002 3.99 2.996 2.962 1.64 1.33a.354.354 0 00-.284-.119.337.337 0 00-.267.155 2.94 2.94 0 00-.37 2.385c.116.416.313.808.581 1.154a1.788 1.788 0 01-.339-.206.346.346 0 00-.47.046.308.308 0 00-.075.2c.02 1.174.699 2.25 1.78 2.819a2.593 2.593 0 01-.43-.088.337.337 0 00-.416.212.303.303 0 00.015.222c.47 1 1.408 1.729 2.532 1.968a6.147 6.147 0 01-3.525.69.33.33 0 00-.357.217.31.31 0 00.154.374 10.41 10.41 0 004.938 1.333 8.8 8.8 0 004.687-1.361c2.649-1.67 4.3-4.668 4.07-7.35a6.078 6.078 0 001.452-1.438.305.305 0 00-.036-.386z" fill="#fff"/></svg>