<svg width="14" height="17" fill="none" xmlns="http://www.w3.org/2000/svg"><path d="M11.74 10.263c-1.922-.602-2.72-1.35-2.72-1.35l-.064.058c-.57.515-1.202.818-1.776.818h-.054c-.575 0-1.206-.303-1.776-.818l-.065-.059s-.798.749-2.719 1.351C-.269 11.28.582 15.418.581 15.45c.09.461.142.62.187.637 2.847 1.217 9.922 1.217 12.77 0 .045-.017.097-.176.186-.637 0-.032.862-4.153-1.985-5.187zm-1.61-6.279l-.024-.024c-.16-.14-.147-.133-.147-.133s.278-1.348.055-1.985C9.664.824 7.571.142 7.152.062c0 0-.255-.05-.272-.05 0 0-.33-.063-.712.097-.25.092-1.552.659-1.922 1.733-.223.637.055 1.985.055 1.985s.013-.008-.147.133l-.024.024c-.108.118-.081.486.037.869.107.384.246.487.28.577.338 1.525 1.515 2.828 2.714 2.828 1.2 0 2.314-1.303 2.653-2.828.033-.09.172-.193.28-.577.117-.383.147-.776.036-.869z" fill="#fff"/></svg>